<svg id="Capa_1" enable-background="new 0 0 510.347 510.347" height="512" viewBox="0 0 510.347 510.347" width="512" xmlns="http://www.w3.org/2000/svg"><g><path d="m488.456 38.498c-8.558-16.774-23.135-29.213-41.048-35.023-17.913-5.809-37.015-4.297-53.789 4.261-93.18 47.535-183.749 47.536-276.878.007-16.773-8.562-35.875-10.08-53.789-4.272-17.914 5.807-32.494 18.242-41.055 35.016-8.561 16.772-10.078 35.875-4.271 53.788 5.807 17.914 18.242 32.493 35.015 41.055 35.313 18.023 71.066 31.332 106.982 39.858v31.977c0 4.143 3.358 7.5 7.5 7.5s7.5-3.357 7.5-7.5v-28.707c5.597 1.12 11.197 2.134 16.799 3.021l6.522 62.377c1.298 12.414 11.689 21.775 24.172 21.775h12.514c6.426 0 11.653-5.228 11.653-11.653v-67.556c2.957.066 5.913.11 8.869.111 3.021 0 6.043-.035 9.068-.104v67.549c0 6.426 5.228 11.653 11.652 11.653h12.515c12.482 0 22.873-9.361 24.171-21.775l6.527-62.424c5.599-.89 11.198-1.91 16.794-3.032v114.14c0 35.44-21.081 67.284-53.706 81.126-2.771 1.176-4.57 3.895-4.57 6.904v27.97c0 4.143 3.357 7.5 7.5 7.5s7.5-3.357 7.5-7.5v-23.136c35.566-17.152 58.276-53.07 58.276-92.864v-117.436c16.909-4.018 33.778-9.065 50.55-15.183 3.892-1.42 5.896-5.725 4.476-9.616-1.42-3.89-5.719-5.898-9.616-4.476-46.754 17.056-94.239 25.703-141.16 25.703-65.409-.004-131.241-16.68-195.668-49.563-13.204-6.739-22.994-18.217-27.565-32.318-4.571-14.103-3.377-29.141 3.362-42.345 6.74-13.204 18.217-22.994 32.319-27.565s29.141-3.377 42.345 3.363c5.982 3.053 11.954 5.916 17.917 8.595v28.854c0 4.143 3.358 7.5 7.5 7.5s7.5-3.357 7.5-7.5v-22.506c14.905 5.926 29.761 10.684 44.588 14.264v23.488c0 4.143 3.358 7.5 7.5 7.5s7.5-3.357 7.5-7.5v-20.272c15.125 2.847 30.226 4.471 45.325 4.871v23.582c0 4.143 3.358 7.5 7.5 7.5 4.143 0 7.5-3.357 7.5-7.5v-23.587c15.097-.41 30.199-2.044 45.325-4.901v20.307c0 4.143 3.357 7.5 7.5 7.5s7.5-3.357 7.5-7.5v-23.533c14.825-3.588 29.682-8.354 44.588-14.287v22.573c0 4.143 3.357 7.5 7.5 7.5s7.5-3.357 7.5-7.5v-28.93c5.914-2.659 11.837-5.499 17.771-8.525 13.205-6.737 28.244-7.927 42.345-3.354 14.102 4.574 25.577 14.366 32.314 27.571 6.736 13.206 7.928 28.244 3.354 42.345-4.574 14.102-14.365 25.577-27.571 32.314-8.286 4.228-16.787 8.272-25.266 12.021-3.788 1.676-5.501 6.104-3.826 9.893 1.676 3.788 6.104 5.498 9.893 3.826 8.731-3.861 17.484-8.026 26.016-12.379 16.774-8.558 29.213-23.135 35.023-41.047 5.808-17.911 4.295-37.014-4.262-53.789zm-190.816 201.796c-.497 4.753-4.475 8.336-9.253 8.336h-9.167v-64.85c8.18-.493 16.369-1.234 24.562-2.227zm-66.356 8.336h-9.167c-4.778 0-8.756-3.583-9.253-8.336l-6.137-58.695c8.185.986 16.371 1.725 24.557 2.211z"/><path d="m228.329 371.666c-32.625-13.842-53.706-45.687-53.706-81.126v-53.414c0-4.143-3.358-7.5-7.5-7.5s-7.5 3.357-7.5 7.5v53.414c0 39.794 22.71 75.712 58.277 92.864v119.442c0 4.143 3.358 7.5 7.5 7.5s7.5-3.357 7.5-7.5v-124.275c0-3.01-1.8-5.729-4.571-6.905z"/><path d="m285.103 431.003c-4.143 0-7.5 3.357-7.5 7.5v64.344c0 4.143 3.357 7.5 7.5 7.5s7.5-3.357 7.5-7.5v-64.344c0-4.142-3.357-7.5-7.5-7.5z"/></g></svg>