<svg id="Capa_1" enable-background="new 0 0 511.786 511.786" height="512" viewBox="0 0 511.786 511.786" width="512" xmlns="http://www.w3.org/2000/svg"><g><path d="m477.266 263.639c0-13.405-6.823-25.246-17.178-32.235 3.944-4.42 6.347-10.242 6.347-16.618v-15.808c0-4.654-1.264-9.108-3.629-12.98 3.632-6.989 5.291-14.87 4.728-23.013-.236-3.412-.879-6.754-1.907-9.991 7.194-7.387 11.639-17.466 11.639-28.568 0-68.609-55.817-124.426-124.426-124.426h-193.894c-22.768 0-45.043 6.209-64.418 17.955-3.542 2.147-4.672 6.76-2.525 10.302 2.148 3.542 6.761 4.671 10.302 2.525 17.029-10.324 36.615-15.782 56.641-15.782h193.894c60.338 0 109.427 49.088 109.427 109.427 0 14.325-11.655 25.98-25.98 25.98h-35.688c-4.142 0-7.5 3.358-7.5 7.5s3.358 7.5 7.5 7.5h35.688c5.705 0 11.14-1.175 16.08-3.291.087.631.161 1.265.205 1.903.552 7.99-2.134 15.595-7.564 21.414-5.436 5.824-12.814 9.032-20.776 9.032-7.057 0-13.821-2.606-19.047-7.339-8.183-7.409-20.523-7.41-28.706 0-5.226 4.732-11.99 7.339-19.047 7.339s-13.821-2.606-19.047-7.339c-8.183-7.409-20.523-7.41-28.706 0-5.226 4.732-11.99 7.339-19.046 7.339s-13.821-2.606-19.047-7.339c-8.183-7.409-20.523-7.41-28.707 0-5.226 4.732-11.99 7.339-19.046 7.339s-13.821-2.606-19.047-7.339c-8.183-7.409-20.523-7.41-28.706 0-5.226 4.732-11.99 7.339-19.047 7.339s-13.821-2.606-19.047-7.339c-8.184-7.409-20.524-7.41-28.707 0-5.226 4.732-11.99 7.339-19.046 7.339-7.962 0-15.34-3.208-20.775-9.031-1.154-1.237-2.177-2.559-3.078-3.944-.061-.099-.122-.196-.188-.293-3.21-5.067-4.724-11.005-4.298-17.178.021-.305.069-.606.1-.91 4.232 1.482 8.775 2.298 13.506 2.298h293.137c4.142 0 7.5-3.358 7.5-7.5s-3.358-7.5-7.5-7.5h-293.138c-14.325 0-25.98-11.655-25.98-25.98 0-27.821 10.458-54.339 29.445-74.669 2.828-3.027 2.666-7.773-.362-10.6-3.027-2.828-7.773-2.667-10.6.362-21.592 23.117-33.483 53.271-33.483 84.907 0 12.144 5.315 23.066 13.735 30.577-.69 2.609-1.139 5.277-1.326 7.982-.518 7.499.845 14.777 3.899 21.34-3.062 4.217-4.753 9.313-4.753 14.653v15.808c0 6.396 2.418 12.237 6.385 16.661-10.319 6.994-17.113 18.814-17.113 32.191 0 11.094 4.68 21.11 12.161 28.197-7.373 4.796-12.263 13.103-12.263 22.535 0 9.383 4.837 17.652 12.145 22.46-7.47 7.061-12.145 17.049-12.145 28.115 0 13.661 7.121 25.683 17.84 32.573-5.519 5.501-8.94 13.106-8.94 21.495v9.524c0 45.903 37.345 83.248 83.248 83.248h162.665c4.142 0 7.5-3.358 7.5-7.5s-3.358-7.5-7.5-7.5h-162.665c-37.632 0-68.248-30.616-68.248-68.248v-9.524c0-8.471 6.892-15.363 15.363-15.363h211.067c4.142 0 7.5-3.358 7.5-7.5s-3.358-7.5-7.5-7.5h-211.625c-13.071 0-23.705-10.634-23.705-23.705s10.634-23.705 23.705-23.705h100.101l13.679 20.577c3.936 5.92 10.53 9.455 17.639 9.455s13.703-3.535 17.639-9.455l13.678-20.576h71.389v57.552c0 15.622 12.709 28.331 28.331 28.331s28.331-12.709 28.331-28.331v-57.552h73.826c13.071 0 23.705 10.634 23.705 23.705s-10.634 23.705-23.705 23.705h-51.326c-4.142 0-7.5 3.358-7.5 7.5s3.358 7.5 7.5 7.5h50.042c8.471 0 15.363 6.892 15.363 15.363v9.524c0 37.632-30.616 68.248-68.248 68.248h-1.64c-4.142 0-7.5 3.358-7.5 7.5s3.358 7.5 7.5 7.5h1.64c45.903 0 83.248-37.345 83.248-83.248v-9.524c0-8.246-3.309-15.73-8.662-21.208 10.969-6.84 18.288-19.009 18.288-32.861 0-11.066-4.675-21.054-12.146-28.115 7.308-4.807 12.146-13.077 12.146-22.46 0-9.406-4.863-17.694-12.202-22.495 7.504-7.091 12.201-17.123 12.201-28.237zm-82.151-65.395c7.99 7.236 18.33 11.221 29.115 11.221 9.917 0 19.541-3.449 27.205-9.602v14.923c0 5.508-4.481 9.99-9.99 9.99h-46.092c-5.509 0-9.99-4.481-9.99-9.99v-15.519c.398-.335.796-.672 1.183-1.023 2.483-2.248 6.086-2.247 8.569 0zm-75.368.001c2.483-2.249 6.087-2.248 8.569 0 7.99 7.235 18.331 11.22 29.116 11.22 4.431 0 8.784-.683 12.932-1.977v7.299c0 5.508-4.481 9.99-9.99 9.99h-46.092c-5.509 0-9.99-4.481-9.99-9.99v-7.523c5.672-1.881 10.939-4.93 15.455-9.019zm-66.8 0c2.483-2.249 6.087-2.249 8.569 0 7.658 6.935 17.476 10.874 27.775 11.19v5.352c0 5.508-4.481 9.99-9.99 9.99h-46.092c-5.508 0-9.99-4.481-9.99-9.99v-5.335c.204.003.408.014.612.014 10.786-.001 21.126-3.986 29.116-11.221zm-66.799 0c2.482-2.249 6.085-2.248 8.569 0 3.993 3.616 8.573 6.421 13.503 8.321v8.221c0 5.508-4.481 9.99-9.99 9.99h-46.092c-5.508 0-9.99-4.481-9.99-9.99v-7.959c4.725 1.726 9.753 2.638 14.885 2.638 10.785-.001 21.125-3.986 29.115-11.221zm-115.083 26.531c-5.508 0-9.99-4.481-9.99-9.99 0 0 .023-16.306.042-16.555 7.94 7.171 18.355 11.233 29.116 11.233 10.786 0 21.125-3.985 29.115-11.22 2.273-2.06 5.477-2.209 7.909-.498-.067.401-.11 17.039-.11 17.039 0 5.508-4.481 9.99-9.99 9.99h-46.092zm3.144 15h32.39l31.726 47.726h-64.116c-13.158 0-23.863-10.705-23.863-23.863s10.705-23.863 23.863-23.863zm-12.095 86.465c-6.544 0-11.869-5.325-11.869-11.87s5.325-11.87 11.869-11.87h86.184l15.781 23.739h-101.965zm148.401 27.272c-1.656 2.49-4.151 2.759-5.147 2.759-.997 0-3.492-.269-5.147-2.759l-75.609-113.737h161.513zm139.221 45.279c0 7.351-5.98 13.331-13.331 13.331s-13.331-5.98-13.331-13.331v-57.552h26.661v57.552zm100.661-96.291c6.545 0 11.87 5.325 11.87 11.87s-5.325 11.87-11.87 11.87h-203.74l15.781-23.739h115.426c4.142 0 7.5-3.358 7.5-7.5s-3.358-7.5-7.5-7.5h-105.455l31.727-47.726h134.268c13.158 0 23.863 10.705 23.863 23.863s-10.705 23.863-23.863 23.863h-28.578c-4.142 0-7.5 3.358-7.5 7.5s3.358 7.5 7.5 7.5h28.578 11.993z"/><path d="m336.405 440.706c-15.622 0-28.331 12.709-28.331 28.331v14.417c0 15.622 12.709 28.331 28.331 28.331s28.331-12.709 28.331-28.331v-14.417c0-15.621-12.709-28.331-28.331-28.331zm13.331 42.749c0 7.351-5.98 13.331-13.331 13.331s-13.331-5.98-13.331-13.331v-14.417c0-7.351 5.98-13.331 13.331-13.331s13.331 5.98 13.331 13.331z"/></g></svg>