<svg id="Capa_1" enable-background="new 0 0 511.154 511.154" height="512" viewBox="0 0 511.154 511.154" width="512" xmlns="http://www.w3.org/2000/svg"><g><path d="m498.964 398.736h-6.317c.393-2.542.525-5.13.364-7.724-.959-15.462-11.798-28.248-26.128-32.326l4.969-17.95c6.419-23.192 1.984-47.657-12.167-67.121-2.436-3.349-7.127-4.09-10.477-1.655-3.351 2.436-4.092 7.126-1.656 10.477 11.449 15.746 15.036 35.537 9.843 54.298l-5.819 21.018c-4.966.768-9.737 2.563-13.998 5.321-3.4 2.2-7.7 2.243-10.956.109-5.857-3.838-12.667-5.866-19.693-5.866-7.025 0-13.835 2.028-19.692 5.865-3.277 2.146-7.513 2.148-10.792 0-5.856-3.837-12.666-5.865-19.691-5.865-7.026 0-13.835 2.028-19.69 5.865-3.279 2.147-7.516 2.148-10.793 0-5.856-3.837-12.665-5.865-19.691-5.865s-13.836 2.028-19.692 5.865c-3.278 2.147-7.516 2.146-10.792 0-5.856-3.837-12.665-5.865-19.691-5.865s-13.835 2.028-19.691 5.865c-3.278 2.148-7.514 2.147-10.792 0-5.856-3.837-12.666-5.865-19.691-5.865-7.026 0-13.835 2.028-19.691 5.865-3.279 2.147-7.515 2.148-10.792 0-5.856-3.837-12.666-5.865-19.692-5.865s-13.835 2.028-19.691 5.865c-3.279 2.147-7.515 2.148-10.792 0-5.856-3.837-12.666-5.865-19.692-5.865s-13.836 2.029-19.693 5.866c-3.257 2.134-7.557 2.091-10.956-.109-4.462-2.888-9.463-4.738-14.689-5.439-9.128-22.299-8.13-47.369 2.771-68.88.798-1.575 1.688-3.266 2.718-5.17 1.972-3.643.618-8.194-3.024-10.166-3.644-1.973-8.194-.617-10.166 3.024-1.096 2.024-2.047 3.833-2.907 5.53-12.169 24.011-13.894 51.779-4.944 76.987-13.864 4.358-24.252 16.927-25.191 32.052-.161 2.593-.033 5.182.357 7.724h-4.85c-8.442 0-15.307 6.864-15.307 15.302v5.726c0 20.725 16.86 37.585 37.585 37.585h6.116l21.523 32.089c3.91 5.828 10.433 9.307 17.451 9.307h344.805c7.018 0 13.541-3.479 17.451-9.308l21.523-32.089h7.116c20.725 0 37.585-16.86 37.585-37.585v-8.838c-.001-6.721-5.469-12.189-12.191-12.189zm-66.49 82.345c-1.119 1.668-2.986 2.664-4.994 2.664h-344.805c-2.008 0-3.875-.996-4.994-2.663l-15.919-23.733h386.63zm63.68-61.317c0 12.454-10.132 22.585-22.585 22.585h-435.984c-12.454 0-22.585-10.132-22.585-22.585v-5.726c0-.167.136-.303.303-.303h80.105c4.142 0 7.5-3.358 7.5-7.5s-3.358-7.5-7.5-7.5h-59.958c-.589-2.197-.827-4.492-.684-6.794.677-10.892 9.775-19.512 20.713-19.625 4.142-.023 8.148 1.116 11.598 3.348 8.381 5.425 19.107 5.449 27.328.064 3.408-2.233 7.375-3.413 11.473-3.413s8.064 1.18 11.472 3.412c8.271 5.419 18.961 5.419 27.233 0 3.407-2.232 7.374-3.412 11.471-3.412 4.098 0 8.064 1.18 11.472 3.412 8.271 5.419 18.961 5.419 27.233 0 3.407-2.232 7.374-3.412 11.471-3.412s8.064 1.18 11.472 3.412c8.271 5.419 18.961 5.419 27.232 0 3.407-2.232 7.374-3.412 11.471-3.412s8.063 1.18 11.472 3.413c8.271 5.419 18.961 5.418 27.232 0 3.407-2.232 7.374-3.412 11.472-3.412s8.063 1.18 11.472 3.413c8.271 5.418 18.961 5.418 27.232 0 3.407-2.232 7.373-3.412 11.471-3.412s8.064 1.18 11.472 3.412c8.273 5.42 18.962 5.418 27.231 0 3.408-2.232 7.375-3.413 11.473-3.413s8.064 1.18 11.473 3.413c8.221 5.388 18.948 5.362 27.327-.063 3.449-2.232 7.427-3.367 11.597-3.348 10.939.112 20.038 8.732 20.714 19.624.143 2.304-.095 4.599-.683 6.795h-349.99c-4.142 0-7.5 3.358-7.5 7.5s3.358 7.5 7.5 7.5h368.784z"/><path d="m72.574 258.452c1.349 1.01 2.926 1.498 4.491 1.498 2.282 0 4.535-1.037 6.008-3.004 19.846-26.492 45.988-48.371 75.6-63.272 29.878-15.035 63.361-22.982 96.829-22.982 11.504 0 23.001.942 34.367 2.784-21.337 12.346-35.614 23.557-42.655 33.535-13.57 19.23-18.839 42.593-14.836 65.786s16.797 43.438 36.027 57.008c15.031 10.607 32.587 16.142 50.614 16.142 5.034 0 10.107-.432 15.171-1.306 23.193-4.002 43.438-16.797 57.008-36.027 8.801-12.472 15.629-36.252 20.415-70.942 5.148 5.411 10.028 11.086 14.573 16.986l1.965 2.55c1.477 1.917 3.699 2.922 5.946 2.922 1.598 0 3.208-.509 4.572-1.56 3.281-2.528 3.891-7.238 1.362-10.519l-1.964-2.549c-7.322-9.504-15.441-18.476-24.159-26.731 1.325-12.489 2.434-26.122 3.323-40.891.149-2.475-.216-4.891-1.021-7.133l18.804-26.648c6.359 2.827 13.525 3.646 20.42 2.237 9.175-1.877 16.943-7.316 21.875-15.315 9.014-14.619 5.297-34.144-8.462-44.452-5.87-4.397-12.82-6.717-20.119-6.717-.096 0-.193.006-.29.001-1.422 0-2.787-.97-3.253-2.312-2.575-7.423-7.73-13.749-14.517-17.812-14.143-8.47-32.688-5.242-43.139 7.507-5.849 7.134-8.483 16.086-7.422 25.207.777 6.675 3.445 12.798 7.674 17.785l-19.059 27.009c-2.382-.007-4.78.459-7.062 1.429-10.726 4.558-20.725 9.007-30.029 13.347-1.937-7.48-4.026-15.178-6.272-23.034-.682-2.384-1.828-4.542-3.333-6.388l8.886-31.381c6.933.549 13.971-1.051 20.006-4.672 8.029-4.818 13.55-12.528 15.545-21.711 3.646-16.783-6.346-33.966-22.746-39.118 0 0 0 0-.001 0-7.082-2.224-14.504-2.073-21.458.436-1.346.483-2.969.026-3.858-1.092-4.895-6.146-11.858-10.399-19.608-11.979-16.146-3.291-32.573 5.913-38.196 21.409-3.146 8.671-2.66 17.99 1.371 26.241 2.951 6.038 7.501 10.927 13.146 14.227l-9.005 31.806c-2.25.784-4.357 2.02-6.188 3.694-19.916 18.202-36.758 34.961-50.118 49.859-20.067 4.067-39.6 10.771-57.871 19.965-31.672 15.938-59.633 39.34-80.862 67.678-2.484 3.315-1.81 8.015 1.505 10.499zm331.179-144.838c2.324-3.294 1.629-7.837-1.575-10.285-4.034-3.081-6.581-7.563-7.17-12.62-.587-5.044.877-10.002 4.122-13.961 5.775-7.042 16.021-8.827 23.832-4.148 3.824 2.29 6.608 5.699 8.053 9.86 2.579 7.429 9.566 12.395 17.419 12.394.098 0 .195-.001.291-.001 4.031 0 7.877 1.286 11.129 3.722 7.61 5.701 9.67 16.496 4.688 24.575-2.736 4.438-7.039 7.454-12.114 8.492-5.081 1.04-10.209-.033-14.448-3.024-.194-.137-.38-.281-.566-.424-1.619-1.238-3.676-1.764-5.689-1.457-2.016.308-3.819 1.424-4.995 3.09l-20.916 29.64-11.488-8.106-11.488-8.106zm-36.225 38.859c.361-.154.741-.229 1.12-.229.586 0 1.167.181 1.668.535l30.72 21.677c.825.583 1.282 1.527 1.223 2.525-3.816 63.409-12.098 107.086-23.317 122.986-11.259 15.956-28.059 26.573-47.303 29.894-19.244 3.322-38.629-1.05-54.586-12.311-15.956-11.26-26.573-28.059-29.894-47.303-3.321-19.245 1.051-38.63 12.311-54.586 11.219-15.902 49.595-38.342 108.058-63.188zm-92.832-112.873c3.106-8.562 12.177-13.648 21.102-11.828 4.368.89 8.126 3.181 10.869 6.625 4.93 6.189 13.241 8.543 20.685 5.857 3.843-1.387 7.945-1.468 11.872-.235h-.001c9.071 2.85 14.599 12.348 12.584 21.623-1.106 5.094-4.163 9.368-8.604 12.033-4.446 2.667-9.643 3.36-14.634 1.946-.231-.065-.457-.14-.683-.213-1.938-.626-4.049-.441-5.847.52-1.798.96-3.127 2.611-3.682 4.571l-9.884 34.904-27.056-7.661 9.883-34.905c1.099-3.879-1.066-7.934-4.901-9.177-4.829-1.566-8.719-4.948-10.954-9.523-2.229-4.561-2.495-9.724-.749-14.537zm-4.657 81.923c.738-.675 1.76-.912 2.732-.638l36.175 10.244c.973.275 1.717 1.014 1.992 1.976 2.497 8.734 4.803 17.275 6.908 25.517-2.537 1.251-5.019 2.494-7.43 3.725-17.983-4.413-36.441-6.654-54.915-6.654-7.309 0-14.616.373-21.893 1.074 10.553-10.937 22.738-22.729 36.431-35.244z"/></g></svg>