<svg id="Capa_1" enable-background="new 0 0 511.006 511.006" height="512" viewBox="0 0 511.006 511.006" width="512" xmlns="http://www.w3.org/2000/svg"><g><path d="m243.943 446.932c35.686 0 64.718-29.032 64.718-64.718s-29.032-64.718-64.718-64.718-64.718 29.033-64.718 64.718 29.032 64.718 64.718 64.718zm0-114.436c27.415 0 49.718 22.304 49.718 49.718s-22.303 49.718-49.718 49.718-49.718-22.303-49.718-49.718 22.303-49.718 49.718-49.718z"/><path d="m492.161 30.701h-9-429.546c-.149 0-.271-.121-.271-.27v-12.212c0-.148.121-.27.269-.271l438.598-2.948c4.142-.028 7.478-3.408 7.45-7.55-.028-4.125-3.38-7.45-7.499-7.45-.017 0-.035 0-.051 0l-438.599 2.948c-8.363.057-15.167 6.907-15.167 15.271v12.212c0 .091.012.179.014.27h-11.744c-8.42 0-15.271 6.851-15.271 15.271v13c0 8.367 6.807 15.217 15.174 15.27l55.933.355v45.546c0 4.142 3.358 7.5 7.5 7.5s7.5-3.358 7.5-7.5v-74.442h16.924v124.373c-6.102 3.711-11.774 8.062-16.924 12.956v-30.924c0-4.142-3.358-7.5-7.5-7.5s-7.5 3.358-7.5 7.5v48.973c-8.994 13.849-14.633 30.067-15.763 47.494h-8.281c-6.493 0-12.391 3.308-15.777 8.849s-3.639 12.298-.677 18.075l5.606 10.936v36.927c0 64.544 39.703 119.982 95.964 143.198v23.07c0 11.789 9.591 21.38 21.38 21.38h158.078c11.789 0 21.38-9.591 21.38-21.38v-23.07c56.262-23.216 95.964-78.654 95.964-143.198v-36.927l5.605-10.935c2.962-5.778 2.709-12.535-.676-18.076-3.386-5.541-9.284-8.849-15.777-8.849h-6.596c-1.087-16.671-6.339-32.765-15.368-46.893-2.231-3.491-6.87-4.512-10.358-2.281-3.49 2.23-4.512 6.868-2.281 10.358 7.484 11.711 11.91 25.015 12.971 38.815h-16.988c-3.282-34.17-32.146-60.981-67.163-60.981s-63.88 26.811-67.162 60.981h-16.969c3.333-43.513 39.779-77.906 84.131-77.906 18.693 0 36.419 6.018 51.262 17.403 3.286 2.52 7.994 1.9 10.516-1.387 2.521-3.287 1.9-7.995-1.387-10.516-14.176-10.873-30.586-17.589-48.026-19.742-7.309-16.755-19.023-31.113-34.116-41.715-16.774-11.782-36.486-18.01-57.005-18.01-6.709 0-13.329.678-19.792 1.987v-23.204l176.715 1.139h.049c4.119 0 7.472-3.326 7.499-7.452.026-4.142-3.31-7.521-7.452-7.548l-176.812-1.139v-14.781h258.012 9c4.142 0 7.5-3.358 7.5-7.5s-3.354-7.5-7.496-7.5zm-313.937 91.782c-6.521 5.902-12.2 12.604-16.924 19.959v-96.741h16.924zm-95.773-62.888-55.838-.354c-.148-.001-.269-.122-.269-.27v-13c0-.149.122-.271.271-.271h55.836zm46.925-13.894h16.924v111.905c-5.841 1.171-11.499 2.853-16.924 5.002zm36.5 124.965c28.06 0 54.553 14.296 70.163 37.567-3.421 6.376-6.165 13.165-8.139 20.273-10.336-24.037-34.243-40.915-62.024-40.915-35.016 0-63.88 26.811-67.162 60.981h-16.969c3.333-43.513 39.778-77.906 84.131-77.906zm104.465.566c-6.608-6.783-15.659-10.684-25.401-10.684-9.848 0-18.969 3.969-25.589 10.869-4.885-3.123-10.031-5.823-15.382-8.06 9.882-12.344 24.911-19.733 40.97-19.733 15.979 0 30.946 7.324 40.831 19.567-5.396 2.235-10.557 4.93-15.429 8.041zm-69.513 77.34c-3.064-16.512-17.566-29.057-34.952-29.057s-31.887 12.546-34.951 29.057h-17.113c3.213-25.88 25.328-45.981 52.064-45.981 26.737 0 48.852 20.101 52.065 45.981zm-15.464 0h-38.975c2.728-8.156 10.425-14.057 19.487-14.057s16.759 5.901 19.488 14.057zm143.997 241.054c0 3.518-2.862 6.38-6.38 6.38h-158.078c-3.518 0-6.38-2.862-6.38-6.38v-17.772c13.916 4.119 28.639 6.341 43.873 6.341h83.092c15.234 0 29.957-2.222 43.873-6.341zm103.095-224.384c.381.624.904 1.896.127 3.411l-6.432 12.547c-.247.482-.432.989-.569 1.508h-288.685c-4.142 0-7.5 3.358-7.5 7.5s3.358 7.5 7.5 7.5h288.429v25.65c0 77.106-62.731 139.837-139.837 139.837h-83.092c-77.106 0-139.837-62.731-139.837-139.837v-25.65h43.233c4.142 0 7.5-3.358 7.5-7.5s-3.358-7.5-7.5-7.5h-43.49c-.137-.519-.323-1.026-.569-1.508l-6.432-12.547c-.776-1.515-.253-2.787.128-3.411s1.274-1.67 2.978-1.67h371.071c1.702 0 2.596 1.046 2.977 1.67zm-128.247-16.67c2.728-8.156 10.425-14.057 19.487-14.057s16.759 5.901 19.487 14.057zm19.487-45.982c26.736 0 48.852 20.101 52.065 45.981h-17.113c-3.064-16.512-17.566-29.057-34.952-29.057s-31.887 12.546-34.951 29.057h-17.113c3.213-25.88 25.328-45.981 52.064-45.981zm-78.92-7.885c-3.977-5.172-8.431-9.909-13.281-14.163 3.675-3.19 8.396-4.994 13.445-4.994 4.95 0 9.597 1.739 13.245 4.824-4.924 4.324-9.417 9.126-13.409 14.333zm74.267-38.927c-6.243.289-12.337 1.157-18.231 2.551-12.505-18.455-33.406-29.705-55.871-29.705-22.521 0-43.456 11.295-55.951 29.82-5.923-1.435-12.002-2.326-18.166-2.639 14.651-26.766 43.164-44.105 74.116-44.105 30.945-.001 59.448 17.326 74.103 44.078zm-108.894-52.788c-5.862 2.198-11.524 4.96-16.924 8.267v-65.556h16.924z"/><path d="m492.208 62.192-58.286-.37c-.016 0-.032 0-.048 0-4.12 0-7.473 3.327-7.499 7.453-.026 4.142 3.311 7.521 7.453 7.547l58.286.37h.048c4.12 0 7.473-3.327 7.499-7.453.026-4.141-3.311-7.52-7.453-7.547z"/></g></svg>