<svg id="Capa_1" enable-background="new 0 0 511.283 511.283" height="512" viewBox="0 0 511.283 511.283" width="512" xmlns="http://www.w3.org/2000/svg"><g><path d="m368.869 390.484c-3.71-1.843-8.212-.327-10.053 3.383-15.066 30.35-38.285 55.845-67.146 73.731-3.521 2.182-4.605 6.805-2.424 10.326 1.42 2.29 3.872 3.55 6.382 3.55 1.349 0 2.714-.363 3.944-1.126 31.236-19.359 56.368-46.958 72.679-79.812 1.842-3.709.328-8.21-3.382-10.052z"/><path d="m264.267 481.509c-21.598 8.737-44.457 13.167-67.942 13.167-99.983 0-181.325-81.343-181.325-181.326 0-67.496 37.134-128.996 96.91-160.5 3.665-1.931 5.069-6.467 3.138-10.132-1.932-3.664-6.467-5.068-10.131-3.138-64.715 34.107-104.917 100.692-104.917 173.77 0 108.255 88.071 196.326 196.325 196.326 25.422 0 50.174-4.799 73.567-14.263 3.84-1.553 5.693-5.925 4.14-9.765-1.553-3.839-5.925-5.697-9.765-4.139z"/><path d="m508.467 154.665c-1.428-8.251-7.663-14.692-15.886-16.41l-18.508-3.864c-4.063-.844-8.029 1.755-8.875 5.809-.847 4.055 1.754 8.028 5.809 8.875l18.508 3.864c2.129.444 3.805 2.166 4.171 4.281 1.723 9.974 2.597 20.178 2.597 30.332 0 47.386-18.471 91.917-52.011 125.392-33.456 33.393-77.885 51.767-125.146 51.767-.115 0-.236 0-.352 0-41.87-.08-82.537-15.188-114.511-42.539-31.613-27.042-52.841-64.288-59.772-104.877-.698-4.082-4.57-6.827-8.656-6.13-4.083.697-6.828 4.572-6.13 8.655 7.521 44.037 30.537 84.435 64.808 113.751 34.681 29.666 78.801 46.053 124.232 46.14h.382c51.259 0 99.454-19.933 135.741-56.149 36.379-36.309 56.414-84.611 56.414-136.009.001-11.009-.947-22.072-2.815-32.888z"/><path d="m134.409 193.092h.08c4.105 0 7.455-3.307 7.498-7.422.408-39.16 13.33-76.149 37.368-106.969 23.309-29.884 56.146-51.87 92.463-61.908 2.29-.633 4.742.404 5.954 2.524l5.698 9.971c7.539 13.188 21.659 21.382 36.851 21.382h17.936c9.563 0 18.571 5.089 23.508 13.281l8.98 14.905c6.161 10.227 16.413 17.42 28.128 19.735l14.355 2.836c7.111 1.406 13.495 5.671 17.516 11.701l9.487 14.23c2.298 3.447 6.955 4.378 10.4 2.08 3.446-2.298 4.378-6.954 2.08-10.4l-9.487-14.23c-6.218-9.326-16.091-15.922-27.089-18.096l-14.355-2.836c-7.574-1.497-14.203-6.148-18.188-12.761l-8.98-14.906c-7.634-12.669-21.564-20.54-36.355-20.54h-17.936c-9.823 0-18.953-5.298-23.827-13.825l-5.699-9.972c-4.62-8.079-14.067-12.001-22.974-9.537-39.399 10.89-75.018 34.733-100.294 67.14-26.079 33.436-40.097 73.561-40.54 116.038-.043 4.143 3.28 7.535 7.422 7.579z"/><path d="m271.568 92.561c0-15.833-12.882-28.714-28.715-28.714s-28.714 12.881-28.714 28.714 12.881 28.715 28.714 28.715 28.715-12.882 28.715-28.715zm-42.429 0c0-7.562 6.152-13.714 13.714-13.714 7.563 0 13.715 6.152 13.715 13.714 0 7.563-6.152 13.715-13.715 13.715-7.562 0-13.714-6.153-13.714-13.715z"/><path d="m195.287 180.822c-15.833 0-28.715 12.881-28.715 28.714s12.881 28.715 28.715 28.715c15.833 0 28.714-12.882 28.714-28.715s-12.881-28.714-28.714-28.714zm0 42.428c-7.563 0-13.715-6.152-13.715-13.715 0-7.562 6.152-13.714 13.715-13.714 7.562 0 13.714 6.152 13.714 13.714 0 7.563-6.152 13.715-13.714 13.715z"/><path d="m289.606 215.209c1.042 0 2.097-.066 3.157-.203 6.503-.84 12.29-4.16 16.295-9.352s5.749-11.632 4.91-18.135c-1.731-13.424-14.059-22.939-27.486-21.206-13.425 1.732-22.938 14.063-21.205 27.486 1.595 12.365 12.178 21.411 24.329 21.41zm-7.543-30.38c1.558-2.02 3.81-3.312 6.338-3.638.413-.054.822-.079 1.229-.079 4.725 0 8.842 3.519 9.462 8.326v.001c.326 2.529-.352 5.034-1.909 7.053-1.558 2.02-3.81 3.312-6.338 3.638-5.214.684-10.017-3.026-10.69-8.248-.327-2.53.35-5.035 1.908-7.053z"/><path d="m398.64 246.799c-13.424 1.732-22.936 14.063-21.205 27.487 1.596 12.363 12.18 21.408 24.33 21.408 1.042 0 2.097-.066 3.157-.203 13.424-1.732 22.936-14.063 21.205-27.486v-.001c-1.732-13.423-14.061-22.94-27.487-21.205zm4.363 33.816c-5.228.688-10.018-3.026-10.691-8.247-.674-5.222 3.026-10.018 8.247-10.691.413-.054.822-.079 1.228-.079 4.726 0 8.843 3.519 9.464 8.326.673 5.221-3.027 10.017-8.248 10.691z"/><path d="m441.166 153.9c-8.03-6.195-17.994-8.894-28.056-7.597s-19.015 6.435-25.211 14.467c-6.196 8.031-8.895 17.995-7.597 28.056 1.298 10.062 6.436 19.015 14.467 25.211 6.714 5.18 14.778 7.915 23.12 7.915 1.637 0 3.285-.105 4.936-.318 10.062-1.298 19.015-6.436 25.211-14.467 6.196-8.032 8.895-17.995 7.597-28.056-1.298-10.062-6.435-19.015-14.467-25.211zm-5.006 44.103c-3.749 4.859-9.166 7.968-15.254 8.753-6.078.785-12.114-.847-16.974-4.596s-7.968-9.166-8.753-15.254c-.785-6.087.847-12.115 4.596-16.975 3.749-4.858 9.166-7.967 15.254-8.752.999-.129 1.995-.192 2.986-.192 5.047 0 9.926 1.654 13.988 4.788 4.858 3.749 7.967 9.166 8.752 15.253v.001c.786 6.087-.846 12.115-4.595 16.974z"/><path d="m360.718 118.554c0-13.535-11.012-24.547-24.547-24.547-13.536 0-24.548 11.012-24.548 24.547 0 13.536 11.012 24.548 24.548 24.548s24.547-11.012 24.547-24.548zm-24.547 9.548c-5.265 0-9.548-4.283-9.548-9.548 0-5.264 4.283-9.547 9.548-9.547 5.264 0 9.547 4.283 9.547 9.547 0 5.265-4.283 9.548-9.547 9.548z"/><path d="m307.345 333.728c23.31 0 42.272-18.963 42.272-42.272s-18.963-42.272-42.272-42.272-42.272 18.963-42.272 42.272 18.963 42.272 42.272 42.272zm0-69.545c15.038 0 27.272 12.234 27.272 27.272s-12.234 27.272-27.272 27.272-27.272-12.234-27.272-27.272 12.234-27.272 27.272-27.272z"/><path d="m85.525 231.299c0-13.689 8.663-25.974 21.556-30.566 3.902-1.391 5.938-5.681 4.548-9.582-1.39-3.902-5.679-5.936-9.582-4.549-18.854 6.718-31.522 24.68-31.522 44.697 0 26.16 21.283 47.443 47.443 47.443 1.276 0 2.603-.06 4.056-.183 4.127-.351 7.19-3.979 6.84-8.107-.35-4.127-3.961-7.179-8.107-6.84-1.027.088-1.939.13-2.789.13-17.889.001-32.443-14.553-32.443-32.443z"/><path d="m223.635 428.39c0-24.528-19.956-44.484-44.485-44.484s-44.485 19.956-44.485 44.484c0 24.529 19.956 44.485 44.485 44.485s44.485-19.956 44.485-44.485zm-73.969 0c0-16.258 13.227-29.484 29.485-29.484s29.485 13.227 29.485 29.484-13.227 29.485-29.485 29.485-29.485-13.227-29.485-29.485z"/><path d="m305.841 417.871c0-13.476-10.964-24.439-24.44-24.439s-24.44 10.964-24.44 24.439c0 13.477 10.964 24.44 24.44 24.44s24.44-10.964 24.44-24.44zm-24.44 9.44c-5.205 0-9.44-4.235-9.44-9.44s4.235-9.439 9.44-9.439 9.44 4.234 9.44 9.439-4.235 9.44-9.44 9.44z"/><path d="m48.452 335.992c0 17.116 13.925 31.042 31.042 31.042s31.042-13.926 31.042-31.042-13.925-31.042-31.042-31.042-31.042 13.925-31.042 31.042zm47.084 0c0 8.846-7.196 16.042-16.042 16.042s-16.042-7.196-16.042-16.042 7.196-16.042 16.042-16.042 16.042 7.196 16.042 16.042z"/></g></svg>