<svg id="Capa_1" enable-background="new 0 0 511.154 511.154" height="512" viewBox="0 0 511.154 511.154" width="512" xmlns="http://www.w3.org/2000/svg"><g><path d="m501.865 105.761h-54.139c-4.142 0-7.5 3.357-7.5 7.5s3.358 7.5 7.5 7.5h54.139c4.142 0 7.5-3.357 7.5-7.5s-3.358-7.5-7.5-7.5z"/><path d="m498.964 404.45h-65.428c-3.114-26.376-16.457-49.448-35.892-65.284 11.351-7.517 18.554-19.867 18.554-33.286 0-15.772-9.761-29.986-24.754-36.731-2.953-19.85-21.305-35.188-43.448-35.188-22.622 0-41.296 16.007-43.626 36.481-14.724-8.23-31.227-12.553-48.295-12.553-.747 0-1.49.026-2.235.042v-103.596h6.353c20.366 0 39.094-11.097 48.876-28.961l2.526-4.613h104.168c4.142 0 7.5-3.357 7.5-7.5s-3.358-7.5-7.5-7.5h-108.612c-2.74 0-5.262 1.494-6.579 3.898l-4.66 8.511c-7.149 13.055-20.836 21.165-35.72 21.165h-40.264v-91.848h40.264c14.884 0 28.571 8.109 35.72 21.165l4.661 8.511c1.316 2.403 3.838 3.897 6.578 3.897h194.714c4.142 0 7.5-3.357 7.5-7.5s-3.358-7.5-7.5-7.5h-190.27l-2.526-4.613c-9.781-17.863-28.51-28.96-48.876-28.96h-40.264v-1.338c0-13.484-10.971-24.455-24.456-24.455-6.579 0-12.555 2.616-16.956 6.857-4.4-4.241-10.376-6.857-16.956-6.857s-12.557 2.617-16.957 6.859c-4.4-4.241-10.375-6.859-16.954-6.859-13.485 0-24.456 10.971-24.456 24.455v1.338h-24.975c-4.142 0-7.5 3.357-7.5 7.5s3.358 7.5 7.5 7.5h24.976v19.617h-24.976c-4.142 0-7.5 3.357-7.5 7.5s3.358 7.5 7.5 7.5h24.976v22.164h-24.976c-4.142 0-7.5 3.357-7.5 7.5s3.358 7.5 7.5 7.5h24.976v20.065h-24.976c-4.142 0-7.5 3.357-7.5 7.5s3.358 7.5 7.5 7.5h28.139c4.203 7.424 12.17 12.449 21.293 12.449 3.351 0 6.546-.678 9.456-1.904v11.572c0 4.143 3.358 7.5 7.5 7.5s7.5-3.357 7.5-7.5v-145.301c0-5.214 4.242-9.455 9.456-9.455s9.456 4.241 9.456 9.455v190.834c0 5.214-4.242 9.455-9.456 9.455s-9.456-4.241-9.456-9.455v-13.57c0-4.143-3.358-7.5-7.5-7.5s-7.5 3.357-7.5 7.5v13.57c0 13.484 10.971 24.455 24.456 24.455 3.351 0 6.545-.678 9.456-1.903v42.505h-49.408c-8.313 0-15.077 6.764-15.077 15.077v14.66c0 8.313 6.764 15.077 15.077 15.077h2.819c-24.922 15.531-42.484 41.815-46.119 72.596h-11.169c-4.142 0-7.5 3.357-7.5 7.5s3.358 7.5 7.5 7.5h429.012v6.028c0 12.453-10.131 22.585-22.585 22.585h-435.984c-12.454 0-22.585-10.131-22.585-22.584v-4.567c0-.806.655-1.461 1.46-1.461h18.72c4.142 0 7.5-3.357 7.5-7.5s-3.358-7.5-7.5-7.5h-18.72c-9.076-.001-16.46 7.384-16.46 16.46v4.567c0 20.725 16.86 37.585 37.585 37.585h6.117l13.389 19.962c9.002 13.422 24.025 21.435 40.186 21.435h315.603c16.161 0 31.184-8.013 40.186-21.435l13.389-19.962h7.117c20.725 0 37.585-16.86 37.585-37.585v-8.838c-.003-6.721-5.471-12.19-12.193-12.19zm-371.314-252.667c-5.214 0-9.456-4.242-9.456-9.456v-111.178c0-5.214 4.242-9.455 9.456-9.455s9.456 4.241 9.456 9.455v111.178c0 5.214-4.242 9.456-9.456 9.456zm273.607 252.667c-1.716-9.739-5.512-18.8-10.978-26.672l24.644 11.799c1.585 4.778 2.765 9.746 3.48 14.872h-17.146zm-32.878 0c-4.901-14.063-18.163-23.746-33.548-23.746s-28.646 9.683-33.548 23.746h-17.54c2.888-12.366 10.258-23.466 20.718-30.936 10.128.892 20.461-.286 30.321-3.635 5.685-1.931 11.535-2.965 17.383-3.132 17.2 6.032 29.813 20.307 33.797 37.703zm-16.695 0h-33.706c3.734-5.347 9.92-8.746 16.853-8.746s13.119 3.4 16.853 8.746zm-100.425 0c2.262-16.212 9.09-30.879 19.121-42.725 4.992 3.263 10.319 5.879 15.853 7.831-9.19 9.6-15.452 21.773-17.806 34.894zm-40.7 0c-4.901-14.063-18.163-23.746-33.548-23.746s-28.646 9.683-33.548 23.746h-17.582c3.988-17.415 16.621-31.698 33.846-37.72 6.267.044 12.552 1.078 18.646 3.149 9.471 3.218 19.379 4.424 29.122 3.724 10.394 7.467 17.724 18.535 20.603 30.847zm-16.695 0h-33.706c3.734-5.347 9.92-8.746 16.853-8.746s13.119 3.4 16.853 8.746zm3.628-107.744 7.745 7.278c6.384 5.998 14.613 9.08 22.906 9.08 6.216 0 12.47-1.733 18.004-5.269 6.033-3.854 13.83-3.854 19.862 0 12.917 8.252 29.741 6.686 40.911-3.812l7.743-7.275c6.104 5.88 11.363 12.688 15.509 20.256-17.867.823-34.529 6.354-48.745 15.407-6.604-6.753-15.635-10.635-25.353-10.635-9.848 0-18.968 3.968-25.587 10.867-14.415-9.214-31.133-14.722-48.523-15.607 4.15-7.581 9.414-14.402 15.528-20.29zm206.38 70.95-18.068-8.651c-17.569-8.414-37.403-9.594-55.849-3.329-16.154 5.489-33.897 3.646-48.541-4.79.776-.634 1.562-1.253 2.361-1.859.042-.025.085-.044.127-.07.452-.279.863-.6 1.234-.952 13.961-10.167 31.144-16.15 49.696-16.15 28.479-.001 53.739 14.085 69.04 35.801zm-148.02-11.832c-3.962-5.144-8.391-9.864-13.218-14.097 3.675-3.188 8.394-4.99 13.441-4.99 4.919 0 9.539 1.717 13.177 4.767-4.921 4.316-9.411 9.113-13.4 14.32zm-13.999 6.499c1.874 2.241 3.635 4.589 5.279 7.036-3.423 6.401-6.173 13.225-8.141 20.385-3.146-7.302-7.564-14.037-13.045-19.846 5.543-1.868 10.888-4.4 15.907-7.575zm159.344-56.443c0 10.333-7.099 19.713-17.584 23.723-11.017-6.203-23.327-10.367-36.416-11.987-.304-.697-.61-1.392-.929-2.08.575.021 1.151.033 1.727.033 20.123 0 37.114-12.67 42.264-29.88 6.763 4.814 10.938 12.201 10.938 20.191zm-53.202-56.919c15.921 0 28.874 11.575 28.874 25.804s-12.953 25.805-28.874 25.805c-4.144 0-8.258-.808-12.01-2.345-4.603-6.216-9.932-11.889-15.908-16.92-.628-2.135-.956-4.326-.956-6.539 0-14.23 12.953-25.805 28.874-25.805zm-45.123 38.244-6.222 5.847c-6.161 5.789-15.439 6.654-22.564 2.103-10.938-6.987-25.073-6.987-36.013 0-7.125 4.551-16.403 3.686-22.563-2.103l-6.224-5.848c13.614-9.105 29.834-14.315 46.789-14.315 16.959 0 33.182 5.209 46.797 14.316zm-64.032-132.87v105.063c-6.478 1.134-12.806 2.904-18.911 5.296v-110.359zm-43.367-132.641c5.214 0 9.456 4.241 9.456 9.455v240.943c-1.984 1.197-3.937 2.457-5.848 3.798-4.695 3.297-9.052 6.968-13.064 10.95v-255.691c0-5.213 4.242-9.455 9.456-9.455zm-73.864 295.16c-.042 0-.077-.034-.077-.077v-14.66c0-.043.035-.077.077-.077h49.408v3.851c-2.132 3.524-4.042 7.192-5.732 10.981-17.063-.011-43.676-.018-43.676-.018zm55.402 15c19.83 0 38.875 7.145 53.855 19.544-14.472 8.007-31.835 9.657-47.667 4.277-18.447-6.267-38.28-5.083-55.848 3.329l-20.018 9.584c15.225-22.243 40.793-36.734 69.678-36.734zm-80.328 58.465 24.236-11.604c-5.122 7.65-8.686 16.38-10.334 25.735h-17.146c.678-4.862 1.781-9.58 3.244-14.131zm343.924 84.351c-6.212 9.261-16.578 14.79-27.729 14.79h-315.602c-11.151 0-21.517-5.529-27.729-14.79l-7.785-11.606h386.629z"/></g></svg>