<svg id="Layer_1" enable-background="new 0 0 512 512" height="512" viewBox="0 0 512 512" width="512" xmlns="http://www.w3.org/2000/svg"><path d="m380.662 389.413c4.712 4.66 4.755 12.259.095 16.971-40.489 40.945-94.493 63.495-152.064 63.495-57.129 0-110.839-22.247-151.236-62.644-40.396-40.396-62.644-94.106-62.644-151.235s22.248-110.839 62.644-151.235 94.106-62.644 151.236-62.644c57.571 0 111.575 22.55 152.064 63.495 4.66 4.712 4.618 12.311-.095 16.97-4.712 4.662-12.311 4.617-16.97-.095-35.946-36.351-83.89-56.37-134.999-56.37-104.7 0-189.879 85.18-189.879 189.879s85.18 189.879 189.879 189.879c51.11 0 99.053-20.02 134.999-56.37 4.66-4.713 12.258-4.755 16.97-.096zm113.01-141.898-65.911-65.911c-4.686-4.687-12.284-4.686-16.971 0-4.686 4.687-4.687 12.284 0 16.971l45.426 45.425h-227.523c-6.627 0-12 5.372-12 12s5.373 12 12 12h227.523l-45.425 45.426c-4.687 4.687-4.686 12.284 0 16.971 2.343 2.343 5.414 3.515 8.485 3.515s6.142-1.172 8.485-3.515l65.911-65.911c4.686-4.687 4.686-12.285 0-16.971z"/></svg>