<svg height="512" viewBox="0 0 32 32" width="512" xmlns="http://www.w3.org/2000/svg"><g id="_50-Love" data-name="50-Love"><path d="m27.57 6.44c-3.33-3.21-8.48-2.11-11.57.82-3.09-2.93-8.24-4-11.57-.82a7.78 7.78 0 0 0 0 11.3l10.92 9.52a1 1 0 0 0 1.3 0l10.28-8.9.64-.62a7.78 7.78 0 0 0 0-11.3zm-1.38 9.86-10.19 8.88-9.55-8.26-.64-.62a5.8 5.8 0 0 1 0-8.42 5.05 5.05 0 0 1 3.57-1.39 7.93 7.93 0 0 1 5.29 2.26c.18.18.35.37.51.56l.11.13a1 1 0 0 0 1.42 0l.1-.12a7 7 0 0 1 .52-.57c2.4-2.31 6.37-3.27 8.86-.87a5.8 5.8 0 0 1 0 8.42z"/></g></svg>