<svg width="27" height="18" viewBox="0 0 27 18" fill="none" xmlns="http://www.w3.org/2000/svg">
<path d="M20.464 0.335999C22.4267 0.335999 23.8987 0.837332 24.88 1.84C25.8827 2.84267 26.384 4.464 26.384 6.704V18H22.352V7.472C22.352 4.89067 21.3707 3.6 19.408 3.6C18 3.6 16.9973 4.05867 16.4 4.976C15.8027 5.89333 15.504 7.22667 15.504 8.976V18H11.472V7.472C11.472 4.89067 10.48 3.6 8.496 3.6C7.024 3.6 6.01067 4.112 5.456 5.136C4.90133 6.16 4.624 7.62133 4.624 9.52V18H0.592V0.655998H3.696L4.272 2.928H4.496C5.008 2.032 5.72267 1.38133 6.64 0.976C7.57867 0.549332 8.54933 0.335999 9.552 0.335999C10.8533 0.335999 11.9413 0.559999 12.816 1.008C13.712 1.43467 14.3947 2.10667 14.864 3.024H15.184C15.7173 2.08533 16.464 1.40267 17.424 0.976C18.384 0.549332 19.3973 0.335999 20.464 0.335999Z" fill="url(#paint0_linear_203_1613)"/>
<defs>
<linearGradient id="paint0_linear_203_1613" x1="42.8684" y1="11.0769" x2="-2" y2="11.0769" gradientUnits="userSpaceOnUse">
<stop stop-color="#F6CC63"/>
<stop offset="0.520833" stop-color="#EEC660"/>
<stop offset="0.520933" stop-color="#0F0D06"/>
<stop offset="1"/>
</linearGradient>
</defs>
</svg>
