<svg id="Capa_1" enable-background="new 0 0 510.998 510.998" height="512" viewBox="0 0 510.998 510.998" width="512" xmlns="http://www.w3.org/2000/svg"><g><path d="m510.997 228.218c-.145-41.761-18.627-81.402-50.71-108.758-3.152-2.687-7.886-2.311-10.573.841s-2.312 7.886.841 10.573c28.75 24.515 45.313 60.014 45.442 97.396.103 29.537-10.012 58.449-28.479 81.41-18.197 22.626-43.71 38.631-71.839 45.067-4.038.924-6.563 4.946-5.639 8.984.796 3.475 3.885 5.829 7.305 5.829.554 0 1.117-.062 1.68-.19 31.403-7.185 59.879-25.044 80.182-50.288 6.327-7.867 11.772-16.361 16.282-25.307-2.637 30.112-15.599 58.078-37.197 79.751-24.436 24.52-56.956 38.023-91.571 38.023-37.416 0-72.976-16.206-97.561-44.462-8.505-9.775-20.698-15.382-33.453-15.382h-121.352c-53.74 0-97.646-42.888-99.302-96.234 19.728 34.438 56.849 57.691 99.302 57.691h121.353c8.412 0 16.48 3.728 22.136 10.228 27.083 31.126 66.256 49.204 107.476 49.597h.073c4.108 0 7.458-3.311 7.498-7.428.039-4.142-3.286-7.532-7.429-7.571-36.932-.353-72.033-16.552-96.302-44.444-8.506-9.775-20.698-15.382-33.452-15.382h-121.353c-54.784-.001-99.355-44.572-99.355-99.356s44.571-99.356 99.355-99.356h250.881c20.858 0 41.655 5.03 60.143 14.548 3.68 1.895 8.205.447 10.101-3.235 1.896-3.683.447-8.206-3.235-10.102-20.601-10.605-43.771-16.211-67.008-16.211h-250.882c-63.055 0-114.355 51.3-114.355 114.356v53.543c0 63.056 51.3 114.355 114.355 114.355h121.352c8.413 0 16.481 3.728 22.136 10.228 27.436 31.532 67.119 49.616 108.877 49.616 38.632 0 74.926-15.07 102.196-42.435 27.27-27.364 42.214-63.713 42.08-102.326v-53.543c0-.001 0-.002 0-.003.001-.008.001-.016.001-.023z"/><path d="m62.513 147.141c-3.215-2.611-7.939-2.12-10.55 1.095-11.584 14.266-17.963 32.225-17.963 50.57 0 44.308 36.047 80.355 80.355 80.355h121.352c18.253 0 35.67 7.986 47.787 21.91 20.976 24.107 51.31 37.934 83.227 37.934 29.527 0 57.269-11.519 78.113-32.436 20.844-20.916 32.266-48.7 32.163-78.234-.21-60.591-50.346-109.885-111.761-109.885h-250.881c-12.067 0-23.686 2.628-34.535 7.812-3.737 1.786-5.319 6.263-3.534 10s6.261 5.321 10 3.534c8.813-4.211 18.257-6.346 28.068-6.346h27.718l-75.379 110.005c-10.961-11.694-17.693-27.396-17.693-44.649 0-14.912 5.188-29.513 14.608-41.115 2.611-3.216 2.12-7.94-1.095-10.55zm247.412-13.691-89.57 130.711h-65.741l89.57-130.711zm81.49 3.554-4.623 6.747c-2.342 3.417-1.47 8.085 1.947 10.426 1.296.888 2.771 1.313 4.232 1.313 2.391 0 4.74-1.14 6.193-3.261l6.786-9.903c16.973 7.796 31.294 20.301 41.212 35.798l-6.816 9.946c-2.342 3.417-1.47 8.085 1.947 10.426 1.296.888 2.771 1.314 4.232 1.314 2.391 0 4.74-1.14 6.193-3.261l2.289-3.34c4.464 10.885 6.945 22.756 6.988 35.178.089 25.518-9.78 49.523-27.788 67.594-18.009 18.072-41.978 28.024-67.488 28.024-.443 0-.885-.012-1.327-.018l6.183-9.023c2.342-3.417 1.47-8.085-1.947-10.427-3.416-2.342-8.085-1.469-10.426 1.947l-10.787 15.741c-18.159-3.557-34.98-12.347-48.331-25.408l12.196-17.798c2.342-3.417 1.47-8.085-1.947-10.426-3.416-2.342-8.085-1.47-10.426 1.947l-10.395 15.168c-13.857-13.131-31.976-20.805-51.014-21.491l89.608-130.768h37.128c9.068.001 17.849 1.241 26.181 3.555zm-165.416-3.554-89.57 130.711h-22.074c-13.364 0-25.8-4.039-36.163-10.951l82.066-119.76z"/><path d="m309.792 198.956c-13.479 27.782 2.9 63.654 36.513 79.963 11.017 5.345 22.771 8.085 34.211 8.085 5.19 0 10.317-.564 15.279-1.705 16.495-3.792 29.25-13.448 35.917-27.188 13.479-27.782-2.9-63.653-36.513-79.962-16.013-7.77-33.589-10.037-49.49-6.38-16.495 3.792-29.25 13.448-35.917 27.187zm51.215-13.896c9.174 0 18.675 2.233 27.644 6.585 26.172 12.699 39.436 39.579 29.565 59.919-4.645 9.573-13.801 16.362-25.782 19.117-12.578 2.892-26.634 1.025-39.58-5.257-26.172-12.699-39.436-39.579-29.565-59.92 4.645-9.573 13.801-16.361 25.782-19.116 3.864-.889 7.867-1.328 11.936-1.328z"/><path d="m359.4 251.928c6.83 3.314 14.144 5.065 21.152 5.065 11.323 0 20.584-4.59 24.167-11.977 3.033-6.25 2.081-14.329-2.612-22.167-4.355-7.274-11.46-13.564-20.004-17.71-6.83-3.314-14.144-5.065-21.152-5.065-11.322 0-20.583 4.589-24.169 11.977-6.152 12.682 4.206 30.943 22.618 39.877zm-9.123-33.328c.69-1.421 4.56-3.525 10.674-3.525 4.753 0 9.804 1.231 14.604 3.561 8.027 3.896 12.02 9.141 13.684 11.921 2.361 3.943 2.482 6.892 1.986 7.913-.689 1.422-4.558 3.525-10.672 3.525-4.753 0-9.804-1.231-14.604-3.561-12.739-6.182-17.137-16.811-15.672-19.834z"/></g></svg>