<?xml version="1.0"?>
<svg xmlns="http://www.w3.org/2000/svg" viewBox="0 0 32 32" width="512" height="512"><g id="_27-Setting" data-name="27-Setting"><path d="M16.37,30h-.74A2.66,2.66,0,0,1,13,27.2V26a.64.64,0,0,0-.42-.59q-.4-.15-.81-.33a.6.6,0,0,0-.7.11l-1,1a2.63,2.63,0,0,1-3.72,0L6.1,25.9a3,3,0,0,1,.07-4.32l.66-.65a.6.6,0,0,0,.11-.7c-.12-.27-.23-.53-.33-.81A.64.64,0,0,0,6,19H4.63A2.63,2.63,0,0,1,2,16.37v-.74A2.66,2.66,0,0,1,4.8,13H6a.64.64,0,0,0,.59-.42q.15-.4.33-.81a.6.6,0,0,0-.11-.7l-1-1a2.63,2.63,0,0,1,0-3.72L6.1,6.1a3,3,0,0,1,4.32.07l.65.66a.6.6,0,0,0,.7.11q.4-.18.81-.33A.64.64,0,0,0,13,6V4.63A2.63,2.63,0,0,1,15.63,2h.74A2.66,2.66,0,0,1,19,4.8V6a.64.64,0,0,0,.42.59q.41.15.81.33a.6.6,0,0,0,.7-.11l1-1a2.63,2.63,0,0,1,3.72,0l.26.26a3,3,0,0,1-.07,4.32l-.66.65a.6.6,0,0,0-.11.7q.18.4.33.81A.64.64,0,0,0,26,13h1.39A2.63,2.63,0,0,1,30,15.63v.74A2.66,2.66,0,0,1,27.2,19H26a.64.64,0,0,0-.59.42c-.1.28-.21.54-.33.81a.6.6,0,0,0,.11.7l1,1a2.63,2.63,0,0,1,0,3.72l-.26.26a3,3,0,0,1-4.32-.07l-.65-.66a.6.6,0,0,0-.7-.11q-.4.18-.81.33A.64.64,0,0,0,19,26v1.39A2.63,2.63,0,0,1,16.37,30Zm-4.86-7a2.67,2.67,0,0,1,1.11.24c.21.1.43.19.64.27A2.64,2.64,0,0,1,15,26V27.2c0,.48.25.8.63.8h.74a.63.63,0,0,0,.63-.63V26a2.65,2.65,0,0,1,1.73-2.47,6.32,6.32,0,0,0,.65-.27,2.64,2.64,0,0,1,3,.52l.65.65a1,1,0,0,0,1.49.08l.26-.27a.6.6,0,0,0,.18-.44.63.63,0,0,0-.18-.45l-1-1a2.62,2.62,0,0,1-.51-3c.09-.21.18-.43.26-.64A2.64,2.64,0,0,1,26,17H27.2c.48,0,.8-.25.8-.63v-.74a.63.63,0,0,0-.63-.63H26a2.65,2.65,0,0,1-2.47-1.73,6.32,6.32,0,0,0-.27-.65,2.64,2.64,0,0,1,.52-3L24.41,9a1,1,0,0,0,.08-1.49l-.27-.26a.66.66,0,0,0-.89,0l-1,1a2.62,2.62,0,0,1-3,.51l-.64-.26A2.64,2.64,0,0,1,17,6V4.8c0-.48-.25-.8-.63-.8h-.74a.63.63,0,0,0-.63.63V6a2.65,2.65,0,0,1-1.73,2.47c-.22.08-.44.17-.65.27a2.64,2.64,0,0,1-3-.52L9,7.59a1,1,0,0,0-1.49-.08l-.26.27a.64.64,0,0,0,0,.89l1,1a2.62,2.62,0,0,1,.51,3c-.09.21-.18.43-.26.64A2.64,2.64,0,0,1,6,15H4.8c-.48,0-.8.25-.8.63v.74a.63.63,0,0,0,.63.63H6a2.64,2.64,0,0,1,2.47,1.74c.08.21.17.43.26.64a2.62,2.62,0,0,1-.51,3L7.59,23a1,1,0,0,0-.08,1.49l.27.26a.64.64,0,0,0,.89,0l1-1A2.63,2.63,0,0,1,11.51,23ZM16,21a5,5,0,1,1,5-5A5,5,0,0,1,16,21Zm0-8a3,3,0,1,0,3,3A3,3,0,0,0,16,13Z"/></g></svg>
