<?xml version="1.0"?>
<svg xmlns="http://www.w3.org/2000/svg" viewBox="0 0 32 32" width="512" height="512"><g id="_5-Trash" data-name="5-Trash"><path d="M16,23a1,1,0,0,1-1-1V12a1,1,0,0,1,2,0V22A1,1,0,0,1,16,23Zm9-13a1,1,0,0,0-1,1V22.53A5.47,5.47,0,0,1,18.53,28H13.47A5.47,5.47,0,0,1,8,22.53V11a1,1,0,0,0-2,0V22.53A7.48,7.48,0,0,0,13.47,30h5.06A7.48,7.48,0,0,0,26,22.53V11A1,1,0,0,0,25,10ZM13,22V12a1,1,0,0,0-2,0V22a1,1,0,0,0,2,0ZM28,7a1,1,0,0,1-1,1H5A1,1,0,0,1,5,6h6a4,4,0,0,1,4-4h2a4,4,0,0,1,4,4h6A1,1,0,0,1,28,7ZM19,6a2,2,0,0,0-2-2H15a2,2,0,0,0-2,2Zm2,16V12a1,1,0,0,0-2,0V22a1,1,0,0,0,2,0Z"/></g></svg>
