<svg height="512" viewBox="0 0 32 32" width="512" xmlns="http://www.w3.org/2000/svg"><g id="_48_Warning" data-name="48 Warning"><path d="m15.087 18.624-.266-3.976c-.052-.8-.325-2.093.286-2.743.465-.5 1.566-.586 1.9.107a4.873 4.873 0 0 1 .182 2.536l-.356 4.093a3.221 3.221 0 0 1 -.249 1.12.708.708 0 0 1 -1.254.013 3.763 3.763 0 0 1 -.243-1.15zm.921 5.463a1.24 1.24 0 0 1 -.142-2.471 1.24 1.24 0 1 1 .142 2.471z"/><path d="m27.193 28h-22.386a3.027 3.027 0 0 1 -2.583-4.526l11.206-17.963a3.027 3.027 0 0 1 5.146.009l11.188 17.933a3.028 3.028 0 0 1 -2.571 4.547zm-12.054-21.451-11.205 17.963a1.008 1.008 0 0 0 .873 1.488h22.386a1.009 1.009 0 0 0 .861-1.509s-11.188-17.936-11.193-17.942a1.02 1.02 0 0 0 -1.722 0z"/></g></svg>