<svg height="512" viewBox="0 0 32 32" width="512" xmlns="http://www.w3.org/2000/svg"><g id="_29-Write" data-name="29-Write"><path d="m26 16.9v5.64a7.47 7.47 0 0 1 -7.46 7.46h-9.08a7.47 7.47 0 0 1 -7.46-7.46v-9.08a7.47 7.47 0 0 1 7.46-7.46h5.64a1 1 0 1 1 0 2h-5.64a5.47 5.47 0 0 0 -5.46 5.46v9.08a5.47 5.47 0 0 0 5.46 5.46h9.08a5.47 5.47 0 0 0 5.46-5.46v-5.64a1 1 0 0 1 2 0z"/><path d="m28.46 3.54a3.3 3.3 0 0 0 -4.56 0l-10.84 10.83a1.08 1.08 0 0 0 -.27.49l-.9 4.06a1 1 0 0 0 .27.92 1 1 0 0 0 .7.3.78.78 0 0 0 .22 0l4.06-.9a1.08 1.08 0 0 0 .49-.27l10.83-10.87a3.22 3.22 0 0 0 0-4.56zm-1.41 3.15-10.63 10.63-2.24.5.5-2.24 10.63-10.58a1.27 1.27 0 0 1 1.74 0 1.23 1.23 0 0 1 0 1.69z"/></g></svg>